<?xml version="1.0" encoding="UTF-8" standalone="no"?><!DOCTYPE svg PUBLIC "-//W3C//DTD SVG 1.1//EN" "http://www.w3.org/Graphics/SVG/1.1/DTD/svg11.dtd"><svg width="100%" height="100%" viewBox="0 0 443 77" version="1.1" xmlns="http://www.w3.org/2000/svg" xmlns:xlink="http://www.w3.org/1999/xlink" xml:space="preserve" xmlns:serif="http://www.serif.com/" style="fill-rule:evenodd;clip-rule:evenodd;stroke-linejoin:round;stroke-miterlimit:1.41421;"><path d="M76.7,0l-72.9,0c-2.1,0 -3.8,1.6 -3.8,3.6l0,69.6c0,2 1.7,3.6 3.8,3.6l72.9,0c2.1,0 3.8,-1.6 3.8,-3.6l0,-69.6c-0.1,-2 -1.8,-3.6 -3.8,-3.6Zm-30.1,21l8.4,0l0,8l-8.4,0l0,-8Zm-26.7,0.3c1.4,3 3.2,3.7 6.2,3.7l0,-4l8.4,0l0,8l-7.8,0c-4.8,0 -8,-1.2 -10.1,-5.9l3.3,-1.8Zm20.8,36.8c-10.6,0 -19.3,-3.3 -27,-9.7l3,-3.8c7.6,5.4 13.9,7.9 24,7.9c10.2,0 16.4,-2.5 24,-7.9l3,3.8c-7.7,6.4 -16.4,9.7 -27,9.7Z" style="fill:currentColor;fill-rule:nonzero;"/><g><path d="M131.5,44.9c-0.1,1.5 -0.4,3 -0.9,4.4c-0.5,1.4 -1.2,2.7 -2,3.8c-1.3,1.6 -3.1,3.1 -5.3,4.2c-2.2,1.2 -4.8,1.7 -7.7,1.7c-2.9,0 -5.5,-0.6 -7.8,-1.8c-2.3,-1.2 -4.1,-2.6 -5.4,-4.2c-1.4,-1.8 -2.5,-3.9 -3.1,-6.2c-0.7,-2.3 -1,-4.9 -1,-7.7c0,-2.8 0.3,-5.3 1,-7.6c0.7,-2.3 1.7,-4.4 3.1,-6.2c1.3,-1.6 3.1,-3 5.4,-4.2c2.3,-1.2 4.9,-1.8 7.8,-1.8c2.9,0 5.5,0.6 7.7,1.7c2.2,1.2 4,2.6 5.3,4.2c0.9,1.1 1.6,2.4 2,3.8c0.5,1.4 0.8,2.9 0.9,4.4l-9,0c0,-0.7 -0.2,-1.3 -0.4,-1.9c-0.2,-0.6 -0.4,-1.1 -0.7,-1.6c-0.5,-0.8 -1.3,-1.5 -2.3,-2c-1,-0.5 -2.2,-0.8 -3.6,-0.8c-1.3,0 -2.3,0.2 -3.2,0.7c-0.9,0.4 -1.7,1 -2.3,1.7c-1.1,1.2 -1.8,2.7 -2.1,4.4c-0.3,1.7 -0.4,3.4 -0.4,5.2c0,1.8 0.1,3.5 0.4,5.2c0.3,1.7 1,3.1 2.1,4.3c0.6,0.7 1.4,1.2 2.3,1.7c0.9,0.5 2,0.7 3.2,0.7c1.4,0 2.6,-0.3 3.6,-0.8c1,-0.5 1.7,-1.2 2.3,-2c0.3,-0.5 0.5,-1 0.7,-1.6c0.2,-0.6 0.3,-1.2 0.4,-1.9l9,0l0,0.2Z" style="fill:currentColor;fill-rule:nonzero;"/><path d="M168.5,39.3c0,3.2 -0.4,5.9 -1.2,8c-0.8,2.2 -1.9,4.1 -3.3,5.9c-1.3,1.6 -3.1,3 -5.4,4.2c-2.3,1.2 -4.9,1.7 -7.8,1.7c-2.9,0 -5.5,-0.6 -7.8,-1.7c-2.3,-1.2 -4.1,-2.5 -5.4,-4.2c-1.4,-1.8 -2.5,-3.8 -3.3,-5.9c-0.8,-2.2 -1.2,-4.8 -1.2,-8c0,-3.2 0.4,-5.9 1.2,-8.1c0.8,-2.2 1.9,-4.1 3.3,-5.9c1.3,-1.6 3.1,-3 5.4,-4.2c2.3,-1.2 4.9,-1.7 7.8,-1.7c2.9,0 5.5,0.6 7.8,1.7c2.3,1.2 4.1,2.5 5.4,4.2c1.4,1.8 2.5,3.8 3.3,5.9c0.8,2.2 1.2,4.9 1.2,8.1Zm-9.2,0c0,-1.8 -0.2,-3.5 -0.5,-5.2c-0.3,-1.7 -1.1,-3.1 -2.2,-4.3c-0.6,-0.7 -1.4,-1.3 -2.4,-1.7c-1,-0.5 -2.1,-0.7 -3.4,-0.7c-1.3,0 -2.4,0.2 -3.3,0.7c-1,0.5 -1.8,1 -2.4,1.7c-1.1,1.2 -1.8,2.7 -2.2,4.3c-0.3,1.7 -0.5,3.4 -0.5,5.2c0,1.8 0.2,3.5 0.5,5.2c0.3,1.7 1.1,3.1 2.2,4.3c0.6,0.7 1.4,1.3 2.4,1.7c1,0.5 2.1,0.7 3.3,0.7c1.3,0 2.4,-0.2 3.4,-0.7c1,-0.5 1.8,-1 2.4,-1.7c1.1,-1.2 1.8,-2.7 2.2,-4.3c0.3,-1.6 0.5,-3.4 0.5,-5.2Z" style="fill:currentColor;fill-rule:nonzero;"/><path d="M218,58.3l0,-23.5c0,-2.3 -0.4,-4.1 -1.2,-5.4c-0.8,-1.3 -2.3,-1.9 -4.6,-1.9c-1.3,0 -2.4,0.3 -3.4,0.9c-0.9,0.6 -1.7,1.4 -2.3,2.4c-0.6,1 -1.1,2.1 -1.3,3.3c-0.3,1.2 -0.4,2.4 -0.4,3.6l0,20.7l-9,0l0,-23.5c0,-2.3 -0.4,-4.1 -1.2,-5.4c-0.8,-1.3 -2.3,-1.9 -4.6,-1.9c-1.3,0 -2.4,0.3 -3.3,0.9c-0.9,0.6 -1.7,1.4 -2.3,2.4c-0.6,1 -1.1,2.1 -1.4,3.3c-0.3,1.2 -0.4,2.4 -0.4,3.6l0,20.7l-9,0l0,-37.9l7.6,0l0.7,5c1.1,-1.7 2.5,-3.2 4.3,-4.3c1.8,-1.1 4,-1.7 6.5,-1.7c2.7,0 4.9,0.5 6.7,1.6c1.8,1.1 3.2,2.6 4.2,4.5c1.1,-2 2.7,-3.5 4.6,-4.6c2,-1.1 4.2,-1.6 6.8,-1.6c4.1,0 7.2,1.2 9.2,3.7c2.1,2.5 3.1,5.7 3.1,9.6l0,25.6l-9.3,0l0,-0.1Z" style="fill:currentColor;fill-rule:nonzero;"/><path d="M269,39.2c0,7.5 -2.3,13.2 -6.8,16.9c-1.2,1 -2.5,1.7 -4,2.3c-1.5,0.5 -3.3,0.8 -5.2,0.8c-2.3,0 -4.3,-0.3 -6,-1c-1.7,-0.7 -3,-1.6 -3.9,-2.7l0,17.3l-9.1,0l0,-52.4l7.9,0l0.6,4.2c1.1,-1.7 2.7,-3 4.6,-3.8c1.9,-0.8 4,-1.2 6,-1.2c1.9,0 3.6,0.3 5.1,0.9c1.5,0.6 2.9,1.4 4,2.3c2.3,1.8 4,4.2 5.1,7c1.2,2.7 1.7,5.9 1.7,9.4Zm-9.2,0.2c0,-1.6 -0.2,-3.3 -0.5,-4.9c-0.3,-1.6 -1,-3.1 -1.9,-4.3c-0.7,-0.8 -1.5,-1.5 -2.5,-2.1c-1,-0.6 -2.2,-0.9 -3.6,-0.9c-1.8,0 -3.3,0.4 -4.4,1.1c-1.1,0.8 -2,1.7 -2.6,2.9c-0.6,1.2 -1.1,2.5 -1.3,4c-0.2,1.5 -0.3,2.9 -0.3,4.2c0,1.4 0.1,2.8 0.3,4.2c0.2,1.4 0.7,2.7 1.3,3.9c0.6,1.2 1.5,2.2 2.6,2.9c1.1,0.8 2.6,1.1 4.4,1.1c1.4,0 2.6,-0.3 3.6,-0.9c1,-0.6 1.8,-1.3 2.5,-2.1c1,-1.3 1.6,-2.7 1.9,-4.3c0.3,-1.5 0.5,-3.2 0.5,-4.8Z" style="fill:currentColor;fill-rule:nonzero;"/><path d="M296.1,28.8c-1.1,-0.2 -2.2,-0.4 -3.1,-0.4c-3.2,0 -5.6,1 -7.3,3.1c-1.7,2 -2.5,4.6 -2.5,7.7l0,19.1l-9.3,0l0,-37.9l7.8,0l0.8,5.6c0.9,-2.2 2.3,-3.7 4.3,-4.7c2,-1 4.1,-1.4 6.4,-1.4c1,0 1.9,0.1 2.8,0.2l0,8.7l0.1,0Z" style="fill:currentColor;fill-rule:nonzero;"/><path d="M330.3,39.3c0,3.2 -0.4,5.9 -1.2,8c-0.8,2.2 -1.9,4.1 -3.3,5.9c-1.3,1.6 -3.1,3 -5.4,4.2c-2.3,1.2 -4.9,1.7 -7.8,1.7c-2.9,0 -5.5,-0.6 -7.8,-1.7c-2.3,-1.2 -4.1,-2.5 -5.4,-4.2c-1.4,-1.8 -2.5,-3.8 -3.3,-5.9c-0.8,-2.2 -1.2,-4.8 -1.2,-8c0,-3.2 0.4,-5.9 1.2,-8.1c0.8,-2.2 1.9,-4.1 3.3,-5.9c1.3,-1.6 3.1,-3 5.4,-4.2c2.3,-1.2 4.9,-1.7 7.8,-1.7c2.9,0 5.5,0.6 7.8,1.7c2.3,1.2 4.1,2.5 5.4,4.2c1.4,1.8 2.5,3.8 3.3,5.9c0.8,2.2 1.2,4.9 1.2,8.1Zm-9.2,0c0,-1.8 -0.2,-3.5 -0.5,-5.2c-0.3,-1.7 -1.1,-3.1 -2.2,-4.3c-0.6,-0.7 -1.4,-1.3 -2.4,-1.7c-1,-0.5 -2.1,-0.7 -3.4,-0.7c-1.3,0 -2.4,0.2 -3.3,0.7c-1,0.5 -1.8,1 -2.4,1.7c-1.1,1.2 -1.8,2.7 -2.2,4.3c-0.3,1.7 -0.5,3.4 -0.5,5.2c0,1.8 0.2,3.5 0.5,5.2c0.3,1.7 1.1,3.1 2.2,4.3c0.6,0.7 1.4,1.3 2.4,1.7c1,0.5 2.1,0.7 3.3,0.7c1.3,0 2.4,-0.2 3.4,-0.7c1,-0.5 1.8,-1 2.4,-1.7c1.1,-1.2 1.8,-2.7 2.2,-4.3c0.3,-1.6 0.5,-3.4 0.5,-5.2Z" style="fill:currentColor;fill-rule:nonzero;"/><path d="M379.9,58.3l0,-23.5c0,-2.3 -0.4,-4.1 -1.2,-5.4c-0.8,-1.3 -2.3,-1.9 -4.6,-1.9c-1.3,0 -2.4,0.3 -3.4,0.9c-0.9,0.6 -1.7,1.4 -2.3,2.4c-0.6,1 -1.1,2.1 -1.3,3.3c-0.3,1.2 -0.4,2.4 -0.4,3.6l0,20.7l-9,0l0,-23.5c0,-2.3 -0.4,-4.1 -1.2,-5.4c-0.8,-1.3 -2.3,-1.9 -4.6,-1.9c-1.3,0 -2.4,0.3 -3.4,0.9c-0.9,0.6 -1.7,1.4 -2.3,2.4c-0.6,1 -1.1,2.1 -1.4,3.3c-0.3,1.2 -0.4,2.4 -0.4,3.6l0,20.7l-9,0l0,-37.9l7.6,0l0.7,5c1.1,-1.7 2.5,-3.2 4.3,-4.3c1.8,-1.1 4,-1.7 6.5,-1.7c2.7,0 4.9,0.5 6.7,1.6c1.8,1.1 3.2,2.6 4.2,4.5c1.1,-2 2.7,-3.5 4.6,-4.6c2,-1.1 4.2,-1.6 6.8,-1.6c4.1,0 7.2,1.2 9.2,3.7c2.1,2.5 3.1,5.7 3.1,9.6l0,25.6l-9.2,0l0,-0.1Z" style="fill:currentColor;fill-rule:nonzero;"/><path d="M394.5,16.9l-2.6,-4.4l11.9,-9.2l3.6,6.1l-12.9,7.5Zm1.5,41.4l0,-37.9l9.2,0l0,37.9l-9.2,0Z" style="fill:currentColor;fill-rule:nonzero;"/><path d="M442.2,46.5c0,1.8 -0.3,3.5 -0.9,4.8c-0.6,1.4 -1.4,2.5 -2.4,3.5c-1.6,1.6 -3.4,2.7 -5.7,3.4c-2.2,0.7 -4.7,1 -7.3,1c-2.4,0 -4.7,-0.3 -6.8,-1c-2.1,-0.7 -3.9,-1.8 -5.5,-3.3c-1.1,-1.1 -2.1,-2.4 -2.8,-3.9c-0.8,-1.5 -1.2,-3.1 -1.2,-4.9l8.5,0c0,0.8 0.2,1.6 0.6,2.5c0.4,0.8 0.9,1.5 1.5,2c0.7,0.6 1.5,1 2.4,1.3c0.9,0.3 2,0.4 3.3,0.4c0.8,0 1.6,-0.1 2.5,-0.2c0.9,-0.1 1.7,-0.4 2.5,-0.7c0.8,-0.3 1.4,-0.8 1.9,-1.5c0.5,-0.6 0.8,-1.5 0.8,-2.5c0,-1.1 -0.3,-2 -1,-2.7c-0.7,-0.7 -1.6,-1.1 -2.8,-1.3c-1.7,-0.2 -3.4,-0.4 -5.2,-0.6c-1.8,-0.2 -3.5,-0.4 -5.2,-0.8c-1.3,-0.3 -2.5,-0.8 -3.5,-1.4c-1,-0.6 -2,-1.4 -2.7,-2.3c-0.8,-0.9 -1.4,-1.9 -1.8,-3c-0.4,-1.1 -0.6,-2.2 -0.6,-3.5c0,-1.9 0.4,-3.6 1.1,-5c0.7,-1.4 1.6,-2.6 2.8,-3.5c1.4,-1.2 3.1,-2.1 5,-2.8c1.9,-0.7 4.1,-1 6.5,-1c2.3,0 4.5,0.4 6.6,1.1c2.1,0.7 3.9,1.9 5.3,3.4c1,1.1 1.8,2.3 2.4,3.7c0.6,1.3 0.9,2.7 0.9,4.1l-8.7,0c0,-0.7 -0.1,-1.4 -0.4,-2c-0.3,-0.6 -0.7,-1.1 -1.1,-1.6c-0.5,-0.5 -1.3,-1 -2.1,-1.3c-0.9,-0.3 -1.8,-0.5 -2.8,-0.5c-0.7,0 -1.3,0 -2,0.1c-0.6,0 -1.3,0.2 -2,0.5c-0.8,0.3 -1.5,0.9 -2.1,1.5c-0.6,0.7 -0.8,1.5 -0.8,2.5c0,1.4 0.5,2.3 1.4,2.8c1,0.5 1.9,0.8 3,1c0.9,0.1 1.6,0.2 2.2,0.3c0.6,0.1 1.2,0.1 1.7,0.2c0.6,0.1 1.2,0.2 1.8,0.3c0.6,0.1 1.4,0.2 2.3,0.4c3,0.5 5.5,1.6 7.4,3.5c2.1,1.6 3,4 3,7Z" style="fill:currentColor;fill-rule:nonzero;"/></g></svg>